<?xml version="1.0" encoding="utf-8"?>
<!-- Generator: Adobe Illustrator 15.0.0, SVG Export Plug-In . SVG Version: 6.00 Build 0)  -->
<!DOCTYPE svg PUBLIC "-//W3C//DTD SVG 1.1//EN" "http://www.w3.org/Graphics/SVG/1.1/DTD/svg11.dtd">
<svg version="1.1" id="레이어_1" xmlns="http://www.w3.org/2000/svg" xmlns:xlink="http://www.w3.org/1999/xlink" x="0px"
	 y="0px" width="512px" height="512px" viewBox="0 0 512 512" style="enable-background:new 0 0 512 512;" xml:space="preserve">
<style type="text/css">
<![CDATA[
	.st0{clip-path:url(#SVGID_2_);fill:url(#SVGID_3_);}
]]>
</style>
<g>
	<defs>
		<path id="SVGID_1_" d="M359.559,35.633c-2.625-2.053-5.312-4.03-8.058-5.928c-1.582-1.094-3.179-2.172-4.801-3.212
			c-0.264-0.169-0.535-0.332-0.8-0.5c-3.16-2.003-6.385-3.91-9.681-5.703c-0.066-0.035-0.133-0.069-0.198-0.104
			c-9.471-5.135-19.485-9.389-29.936-12.646c-0.672-0.208-1.349-0.402-2.023-0.603c-0.648-0.193-1.292-0.394-1.943-0.58
			c-14.619-4.161-30.045-6.39-45.98-6.39c-92.706,0-168.129,75.423-168.129,168.131c0,0,0,0.001,0,0.002c0,0,0,0.001,0,0.002
			c0,25.591,5.756,49.86,16.027,71.594c2.646,5.598,5.589,11.028,8.813,16.268c-3.225,5.241-6.167,10.67-8.813,16.268
			c-10.271,21.735-16.027,46.002-16.027,71.596c0,8.125,0.6,16.111,1.718,23.934c0.877,6.121,2.063,12.145,3.584,18.038
			c0.106,0.411,0.224,0.818,0.333,1.229c0.247,0.929,0.492,1.856,0.753,2.778c0.208,0.732,0.433,1.457,0.651,2.187
			c0.178,0.591,0.348,1.188,0.531,1.779c0.177,0.567,0.369,1.129,0.552,1.692c1.087,3.364,2.267,6.687,3.559,9.956
			c0.12,0.301,0.248,0.6,0.369,0.9c0.389,0.966,0.777,1.935,1.183,2.892c0.216,0.509,0.445,1.013,0.667,1.52
			c0.323,0.743,0.642,1.489,0.976,2.229c0.006,0.013,0.014,0.027,0.02,0.04c0.825,1.822,1.683,3.627,2.571,5.415
			c27.532,55.392,84.727,93.551,150.663,93.551c10.141,0,20.075-0.902,29.727-2.631c78.585-14.074,138.414-82.935,138.414-165.506
			c0,0,0,0,0-0.002l0,0c0-25.594-5.757-49.862-16.029-71.596c-2.646-5.598-5.588-11.027-8.813-16.266
			c3.226-5.24,6.168-10.67,8.813-16.268c10.271-21.735,16.028-46.004,16.028-71.596c0-0.001,0-0.001,0-0.002
			c0-0.001,0-0.002,0-0.002C424.279,114.356,398.926,66.432,359.559,35.633z M328.978,95.27c0.069,0.069,0.136,0.141,0.206,0.21
			c18.537,18.643,30.012,44.318,30.012,72.623c0,7.335-0.776,14.492-2.241,21.397c-1.191,5.619-2.837,11.072-4.904,16.314
			c0,0-0.001,0-0.001,0c-8.255,20.921-23.171,38.511-42.116,50.153c-5.688,3.496-11.737,6.453-18.081,8.805
			c-11.131,4.125-23.16,6.382-35.708,6.382s-24.577-2.259-35.708-6.384c0,0.002,0,0.002-0.001,0.002
			c-21.409,9.708-38.2,27.848-46.106,50.17c-0.001,0.002-0.001,0.002-0.001,0.002c24.229,13.555,52.131,21.296,81.812,21.296
			c8.693,0,17.233-0.663,25.574-1.942c2.781-0.426,5.538-0.92,8.272-1.48c17.073-3.503,33.205-9.612,47.976-17.875
			c4.85-2.712,9.55-5.657,14.089-8.82c2.069,5.241,3.714,10.695,4.904,16.313c1.465,6.904,2.241,14.062,2.241,21.396
			c0,56.821-46.23,103.05-103.052,103.05c-28.306,0-53.979-11.475-72.623-30.01c-0.069-0.07-0.141-0.138-0.211-0.206
			c-0.137-0.138-0.27-0.279-0.407-0.417c-4.029-4.074-7.721-8.483-11.032-13.178c-1.419-2.013-2.768-4.079-4.042-6.191
			c-0.426-0.705-0.843-1.415-1.251-2.131c-8.578-15.027-13.484-32.411-13.484-50.917c0-7.335,0.775-14.489,2.239-21.395
			c1.191-5.618,2.837-11.071,4.905-16.315c0,0,0,0,0.001,0c8.255-20.922,23.17-38.513,42.115-50.154c0.001,0,0.001,0,0.001,0
			c5.688-3.495,11.736-6.453,18.08-8.803c11.131-4.125,23.161-6.383,35.708-6.383s24.577,2.257,35.708,6.382
			c21.41-9.708,38.203-27.848,46.108-50.17c0-0.001,0-0.001,0-0.001c-19.501-10.909-41.38-18.056-64.654-20.427
			c-5.646-0.575-11.373-0.87-17.167-0.87c-29.68,0-57.582,7.741-81.81,21.294c-4.85,2.713-9.551,5.657-14.09,8.821
			c-1.551-3.932-2.865-7.982-3.927-12.132c-0.354-1.383-0.68-2.778-0.978-4.183c-1.464-6.904-2.239-14.06-2.239-21.394
			c0-56.821,46.228-103.049,103.049-103.049c27.206,0,51.979,10.603,70.417,27.886C327.377,93.704,328.187,94.478,328.978,95.27z"/>
	</defs>
	<clipPath id="SVGID_2_">
		<use xlink:href="#SVGID_1_"  style="overflow:visible;"/>
	</clipPath>
	<linearGradient id="SVGID_3_" gradientUnits="userSpaceOnUse" x1="256.145" y1="511.9668" x2="256.145" y2="-0.0317">
		<stop  offset="0" style="stop-color:#4BBDC9"/>
		<stop  offset="1" style="stop-color:#597EBF"/>
	</linearGradient>
	<rect x="0.145" y="-0.032" class="st0" width="512" height="511.999"/>
</g>
</svg>
